<svg width="32" height="32" viewBox="0 0 32 32" fill="none" xmlns="http://www.w3.org/2000/svg">
<path d="M22 22.5003H10.7123M22 20.2985H11.609C10.7204 20.2985 10 19.5601 10 18.6493C10 17.7384 10.7204 17 11.609 17C12.2197 17 12.751 17.3488 13.0236 17.8626M22 24.7015H16.9724C16.0837 24.7015 15.3634 25.4399 15.3634 26.3507C15.3634 27.2616 16.0837 28 16.9724 28C17.5831 28 18.1144 27.6512 18.3869 27.1374M10.3897 14C8.51763 14 7 12.5076 7 10.6667C7 8.76467 8.61321 7.33333 10.5003 7.33333C10.5003 5.49238 12.018 4 13.8901 4C14.9833 4 15.9556 4.50892 16.5755 5.29897C17.1744 4.77446 17.9639 4.45576 18.829 4.45576C20.5611 4.45576 21.9898 5.73334 22.1937 7.38253C23.7878 7.65448 25 9.02136 25 10.6667C25 12.5076 23.4824 14 21.6103 14H10.3897Z" stroke="white" stroke-linecap="round"/>
</svg>
