<svg width="32" height="32" viewBox="0 0 32 32" fill="none" xmlns="http://www.w3.org/2000/svg">
<path d="M11.5003 17.3333V17.8333H12.0003V17.3333H11.5003ZM17.5755 15.299L17.1821 15.6076L17.5079 16.0228L17.9049 15.6751L17.5755 15.299ZM23.1937 17.3825L22.6975 17.4439L22.7431 17.8129L23.1097 17.8754L23.1937 17.3825ZM8.82186 14.3688C9.03437 14.5451 9.34959 14.5158 9.52592 14.3032C9.70225 14.0907 9.67292 13.7755 9.4604 13.5992L8.82186 14.3688ZM7.02399 11.5776C6.81148 11.4013 6.49626 11.4306 6.31993 11.6431C6.1436 11.8556 6.17293 12.1709 6.38545 12.3472L7.02399 11.5776ZM7.08202 19.1165C7.35613 19.1499 7.60545 18.9548 7.6389 18.6807C7.67234 18.4066 7.47724 18.1573 7.20313 18.1239L7.08202 19.1165ZM4.06056 17.7404C3.78645 17.707 3.53712 17.9021 3.50368 18.1762C3.47024 18.4503 3.66533 18.6996 3.93944 18.7331L4.06056 17.7404ZM28.0817 18.2165C28.3542 18.1714 28.5384 17.914 28.4933 17.6415C28.4481 17.3691 28.1907 17.1849 27.9183 17.23L28.0817 18.2165ZM22.3457 13.3235C22.1409 13.5088 22.1251 13.825 22.3103 14.0297C22.4956 14.2345 22.8118 14.2503 23.0166 14.0651L22.3457 13.3235ZM25.3643 11.9412C25.5691 11.7559 25.5849 11.4397 25.3996 11.235C25.2144 11.0302 24.8982 11.0144 24.6934 11.1996L25.3643 11.9412ZM17.894 10.9255C17.8219 11.192 17.9795 11.4666 18.2461 11.5387C18.5126 11.6108 18.7872 11.4532 18.8593 11.1866L17.894 10.9255ZM19.6861 8.13057C19.7582 7.86401 19.6005 7.58946 19.334 7.51735C19.0674 7.44524 18.7929 7.60287 18.7208 7.86943L19.6861 8.13057ZM22.1656 16.1318C22.3069 16.3691 22.6137 16.447 22.851 16.3057C23.0883 16.1644 23.1661 15.8576 23.0249 15.6203L22.1656 16.1318ZM12.8525 11.3152C12.936 11.5784 13.217 11.7242 13.4802 11.6407C13.7435 11.5573 13.8892 11.2762 13.8058 11.013L12.8525 11.3152ZM12.8491 7.99514C12.7656 7.73191 12.4846 7.58616 12.2213 7.66961C11.9581 7.75306 11.8124 8.0341 11.8958 8.29733L12.8491 7.99514ZM11.3897 23.5C9.78583 23.5 8.5 22.2236 8.5 20.6667H7.5C7.5 22.7916 9.24943 24.5 11.3897 24.5V23.5ZM12.0003 17.3333C12.0003 15.7764 13.2862 14.5 14.8901 14.5V13.5C12.7498 13.5 11.0003 15.2084 11.0003 17.3333H12.0003ZM25.5 20.6667C25.5 22.2236 24.2142 23.5 22.6103 23.5V24.5C24.7506 24.5 26.5 22.7916 26.5 20.6667H25.5ZM11.3897 24.5H22.6103V23.5H11.3897V24.5ZM17.9049 15.6751C18.4154 15.228 19.0887 14.9558 19.829 14.9558V13.9558C18.8391 13.9558 17.9334 14.3209 17.2461 14.9228L17.9049 15.6751ZM14.8901 14.5C15.8251 14.5 16.6542 14.9347 17.1821 15.6076L17.9689 14.9903C17.2571 14.0832 16.1415 13.5 14.8901 13.5V14.5ZM19.829 14.9558C21.3121 14.9558 22.525 16.0486 22.6975 17.4439L23.69 17.3212C23.4546 15.4181 21.8101 13.9558 19.829 13.9558V14.9558ZM9.4604 13.5992L7.02399 11.5776L6.38545 12.3472L8.82186 14.3688L9.4604 13.5992ZM7.20313 18.1239L4.06056 17.7404L3.93944 18.7331L7.08202 19.1165L7.20313 18.1239ZM23.0166 14.0651L25.3643 11.9412L24.6934 11.1996L22.3457 13.3235L23.0166 14.0651ZM18.8593 11.1866L19.6861 8.13057L18.7208 7.86943L17.894 10.9255L18.8593 11.1866ZM16.0246 12.7069C18.6591 12.7069 20.9501 14.0901 22.1656 16.1318L23.0249 15.6203C21.6301 13.2774 19.0137 11.7069 16.0246 11.7069V12.7069ZM13.8058 11.013L12.8491 7.99514L11.8958 8.29733L12.8525 11.3152L13.8058 11.013ZM8.97304 19.0157C9.22888 15.5061 12.2732 12.7069 16.0246 12.7069V11.7069C11.7772 11.7069 8.27163 14.8832 7.97568 18.943L8.97304 19.0157ZM8.5 20.6667C8.5 20.1371 8.64694 19.6536 8.90038 19.2411L8.04834 18.7176C7.70091 19.2831 7.5 19.9472 7.5 20.6667H8.5ZM8.90038 19.2411C9.42104 18.3936 10.4009 17.8333 11.5003 17.8333V16.8333C10.0648 16.8333 8.7568 17.5645 8.04834 18.7176L8.90038 19.2411ZM25.0079 18.7258L28.0817 18.2165L27.9183 17.23L24.8444 17.7393L25.0079 18.7258ZM23.1097 17.8754C23.6761 17.972 24.1856 18.2305 24.5875 18.6004L25.2647 17.8647C24.724 17.3669 24.0387 17.0195 23.2778 16.8897L23.1097 17.8754ZM24.5875 18.6004C25.1509 19.119 25.5 19.8533 25.5 20.6667H26.5C26.5 19.5593 26.0231 18.5626 25.2647 17.8647L24.5875 18.6004Z" fill="white"/>
</svg>
