<svg width="32" height="32" viewBox="0 0 32 32" fill="none" xmlns="http://www.w3.org/2000/svg">
<path d="M7 10.6913C7 12.5322 8.51763 14.0246 10.3897 14.0246H21.6103C23.4824 14.0246 25 12.5322 25 10.6913C25 9.04596 23.7878 7.67907 22.1937 7.40712C21.9898 5.75794 20.5611 4.48036 18.829 4.48036C17.9639 4.48036 17.1744 4.79905 16.5755 5.32357C15.9556 4.53351 14.9833 4.0246 13.8901 4.0246C12.018 4.0246 10.5003 5.51698 10.5003 7.35793C8.61321 7.35793 7 8.78927 7 10.6913Z" stroke="white"/>
<path d="M13.5 16.5493C13.5 17.088 13.0633 17.5247 12.5246 17.5247C11.9859 17.5247 11.5492 17.088 11.5492 16.5493C11.5492 16.0106 11.9859 15.5739 12.5246 15.5739C13.0633 15.5739 13.5 16.0106 13.5 16.5493Z" stroke="white"/>
<path d="M17.0001 21.5C17.0001 22.0387 16.5634 22.4754 16.0247 22.4754C15.486 22.4754 15.0493 22.0387 15.0493 21.5C15.0493 20.9613 15.486 20.5246 16.0247 20.5246C16.5634 20.5246 17.0001 20.9613 17.0001 21.5Z" stroke="white"/>
<path d="M20.5 16.5292C20.5 17.0679 20.0633 17.5046 19.5246 17.5046C18.9859 17.5046 18.5492 17.0679 18.5492 16.5292C18.5492 15.9905 18.9859 15.5538 19.5246 15.5538C20.0633 15.5538 20.5 15.9905 20.5 16.5292Z" stroke="white"/>
<path d="M22.9508 21.5C22.9508 22.0387 22.5141 22.4754 21.9754 22.4754C21.4367 22.4754 21 22.0387 21 21.5C21 20.9613 21.4367 20.5246 21.9754 20.5246C22.5141 20.5246 22.9508 20.9613 22.9508 21.5Z" stroke="white"/>
<path d="M11.0491 21.5C11.0491 22.0387 10.6124 22.4754 10.0737 22.4754C9.53503 22.4754 9.09833 22.0387 9.09833 21.5C9.09833 20.9613 9.53503 20.5246 10.0737 20.5246C10.6124 20.5246 11.0491 20.9613 11.0491 21.5Z" stroke="white"/>
<path d="M13.4754 27C13.4754 27.5387 13.0387 27.9754 12.5 27.9754C11.9613 27.9754 11.5246 27.5387 11.5246 27C11.5246 26.4613 11.9613 26.0246 12.5 26.0246C13.0387 26.0246 13.4754 26.4613 13.4754 27Z" stroke="white"/>
<path d="M20.5 27C20.5 27.5387 20.0633 27.9754 19.5246 27.9754C18.9859 27.9754 18.5492 27.5387 18.5492 27C18.5492 26.4613 18.9859 26.0246 19.5246 26.0246C20.0633 26.0246 20.5 26.4613 20.5 27Z" stroke="white"/>
</svg>
