<svg width="32" height="32" viewBox="0 0 32 32" fill="none" xmlns="http://www.w3.org/2000/svg">
<path d="M19.9576 16L19 18.3938H21.3182L19.9576 22.0979M16.3078 22.5847L17.8711 25.2924C18.5659 26.4958 17.6974 28 16.3078 28C14.9183 28 14.0498 26.4958 14.7446 25.2924L16.3078 22.5847ZM11.8078 17L13.371 19.7076C14.0658 20.911 13.1973 22.4153 11.8078 22.4153C10.4182 22.4153 9.54975 20.911 10.2445 19.7076L11.8078 17ZM10.3897 14C8.51763 14 7 12.5076 7 10.6667C7 8.76467 8.61321 7.33333 10.5003 7.33333C10.5003 5.49238 12.018 4 13.8901 4C14.9833 4 15.9556 4.50892 16.5755 5.29897C17.1744 4.77446 17.9639 4.45576 18.829 4.45576C20.5611 4.45576 21.9898 5.73334 22.1937 7.38253C23.7878 7.65448 25 9.02136 25 10.6667C25 12.5076 23.4824 14 21.6103 14H10.3897Z" stroke="white" stroke-linecap="round"/>
</svg>
