<svg width="32" height="32" viewBox="0 0 32 32" fill="none" xmlns="http://www.w3.org/2000/svg">
<path d="M13.6929 23.0456C14.9409 24.5577 16.5827 25.7256 18.4588 26.3882C17.3364 26.7845 16.13 27 14.8739 27C8.8684 27 4 22.0751 4 16C4 9.92487 8.8684 5 14.8739 5C16.13 5 17.3364 5.21546 18.4588 5.61183C14.2148 7.11052 11.17 11.1956 11.17 16C11.17 16.0218 11.17 16.0436 11.1701 16.0654M13.6929 23.0456H12.511C10.5263 23.0456 8.9174 21.418 8.9174 19.4103C8.9174 17.8681 9.86285 16.6096 11.1701 16.0654M13.6929 23.0456H24.4064C26.3911 23.0456 28 21.418 28 19.4103C28 17.616 26.7149 16.1253 25.025 15.8287C24.8088 14.0301 23.2941 12.6368 21.4578 12.6368C20.5407 12.6368 19.7038 12.9844 19.0688 13.5564C18.4117 12.6948 17.3808 12.1398 16.2219 12.1398C14.2372 12.1398 12.6283 13.7673 12.6283 15.7751C12.1151 15.7751 11.6211 15.8777 11.1701 16.0654" stroke="white" stroke-linejoin="round"/>
</svg>
