<svg width="32" height="32" viewBox="0 0 32 32" fill="none" xmlns="http://www.w3.org/2000/svg">
<path d="M16 22.5847L17.5633 25.2924C18.2581 26.4958 17.3896 28 16 28C14.6105 28 13.742 26.4958 14.4368 25.2924L16 22.5847Z" stroke="white"/>
<path d="M11.5 17L13.0632 19.7076C13.758 20.911 12.8895 22.4153 11.5 22.4153C10.1104 22.4153 9.24195 20.911 9.93673 19.7076L11.5 17Z" stroke="white"/>
<path d="M19.766 16L21.3292 18.7076C22.024 19.911 21.1555 21.4153 19.766 21.4153C18.3764 21.4153 17.5079 19.911 18.2027 18.7076L19.766 16Z" stroke="white"/>
<path d="M7 10.6667C7 12.5076 8.51763 14 10.3897 14H21.6103C23.4824 14 25 12.5076 25 10.6667C25 9.02136 23.7878 7.65448 22.1937 7.38253C21.9898 5.73334 20.5611 4.45576 18.829 4.45576C17.9639 4.45576 17.1744 4.77446 16.5755 5.29897C15.9556 4.50892 14.9833 4 13.8901 4C12.018 4 10.5003 5.49238 10.5003 7.33333C8.61321 7.33333 7 8.76467 7 10.6667Z" stroke="white"/>
</svg>
