<svg width="32" height="32" viewBox="0 0 32 32" fill="none" xmlns="http://www.w3.org/2000/svg">
<path d="M14.7961 15.8807H21.726M15.6624 17.6131H21.726M15.6624 19.3456H20.8598M15.4585 21.0781H19.7897M14.7961 22.8106H18.2611M13.726 24.543H16.3247M14.2611 26.2755H15.9935M15.9935 28.008H16.8598M11.1168 15.55L10.1592 17.9438H12.4774L11.1168 21.6479M10.3897 13.992C8.51763 13.992 7 12.4996 7 10.6587C7 8.75668 8.61321 7.32534 10.5003 7.32534C10.5003 5.48439 12.018 3.992 13.8901 3.992C14.9833 3.992 15.9556 4.50092 16.5755 5.29098C17.1744 4.76646 17.9639 4.44776 18.829 4.44776C20.5611 4.44776 21.9898 5.72535 22.1937 7.37453C23.7878 7.64648 25 9.01337 25 10.6587C25 12.4996 23.4824 13.992 21.6103 13.992H10.3897Z" stroke="white" stroke-linecap="round"/>
</svg>
